<?xml version="1.0" standalone="no"?>
<!DOCTYPE svg PUBLIC "-//W3C//DTD SVG 20010904//EN"
 "http://www.w3.org/TR/2001/REC-SVG-20010904/DTD/svg10.dtd">
<svg version="1.0" xmlns="http://www.w3.org/2000/svg"
 width="512.000000pt" height="512.000000pt" viewBox="0 0 512.000000 512.000000"
 preserveAspectRatio="xMidYMid meet">
<metadata>
Created by potrace 1.14, written by Peter Selinger 2001-2017
</metadata>
<g transform="translate(0.000000,512.000000) scale(0.100000,-0.100000)"
fill="#000000" stroke="none">
<path d="M2420 5044 c-80 -40 -208 -99 -285 -130 -77 -31 -153 -62 -170 -69
-32 -14 -328 -114 -355 -121 -8 -2 -53 -15 -100 -29 -109 -33 -366 -99 -430
-110 -14 -3 -56 -12 -95 -20 -116 -26 -441 -78 -477 -77 -24 1 -27 -7 -33 -74
-7 -80 -14 -159 -20 -219 -2 -27 -7 -88 -10 -135 -2 -47 -7 -110 -10 -140 -3
-30 -7 -95 -10 -145 -3 -49 -7 -130 -10 -180 -22 -362 -22 -1225 0 -1305 2 -8
7 -51 10 -95 15 -199 58 -413 112 -551 21 -53 106 -202 133 -232 8 -9 38 -45
65 -80 177 -221 568 -542 1050 -863 98 -65 342 -223 380 -246 11 -6 76 -47
144 -90 69 -43 129 -80 134 -82 6 -2 26 -14 45 -27 24 -17 49 -24 81 -24 40 0
62 10 160 70 62 38 115 70 117 70 4 0 162 102 339 219 55 36 105 68 110 70 6
2 12 7 15 10 3 4 37 28 75 54 126 85 315 222 415 300 41 32 91 70 110 85 19
15 48 39 65 53 16 14 43 37 59 50 182 148 389 366 470 492 103 160 185 457
212 762 3 33 7 74 10 90 7 53 17 364 17 540 0 182 -12 637 -18 695 -2 19 -6
91 -9 160 -3 69 -8 150 -10 180 -3 30 -7 91 -10 135 -3 44 -9 118 -12 165 -9
118 -13 178 -13 225 -1 22 -5 45 -9 52 -4 7 -37 15 -72 18 -36 3 -72 7 -80 10
-8 2 -37 6 -65 10 -143 17 -553 101 -635 130 -22 8 -40 12 -40 10 0 -2 -18 2
-40 10 -22 8 -43 14 -45 14 -16 0 -321 97 -428 137 -23 9 -67 25 -97 36 -30
12 -80 32 -110 46 -30 13 -77 33 -105 44 -27 11 -123 55 -212 99 -89 43 -163
78 -165 77 -2 -1 -68 -34 -148 -74z"/>
</g>
</svg>
